<mxfile host="app.diagrams.net" modified="2024-03-05T09:20:41.576Z" agent="Mozilla/5.0 (X11; Linux x86_64; rv:122.0) Gecko/20100101 Firefox/122.0" version="24.0.0" etag="kpVp8RnXbU9ZSsUtGEqo" type="github">
  <diagram name="Page-1" id="YYlUMxrQMl0TkWKQ_UDz">
    <mxGraphModel>
      <root>
        <mxCell id="0" />
        <mxCell id="1" parent="0" />
      </root>
    </mxGraphModel>
  </diagram>
</mxfile>
